ISO-10303-21;
HEADER;
/* Generated by software containing ST-Developer
 * from STEP Tools, Inc. (www.steptools.com) 
 */
/* OPTION: using custom schema-name function */

FILE_DESCRIPTION(
/* description */ (''),
/* implementation_level */ '2;1');

FILE_NAME(
/* name */ 'handle',
/* time_stamp */ '2026-04-02T21:24:34+08:00',
/* author */ (''),
/* organization */ (''),
/* preprocessor_version */ 'ST-DEVELOPER v9',
/* originating_system */ 'EDS PLM SOLUTIONS - UNIGRAPHICS NX 2.0',
/* authorisation */ '');

FILE_SCHEMA (('AUTOMOTIVE_DESIGN { 1 0 10303 214 0 1 1 1 }'));
ENDSEC;

DATA;
#10=SHAPE_REPRESENTATION_RELATIONSHIP('none',
'relationship between AdmiC303v95a-none and AdmiC303v95a-none',#22,#11);
#11=ADVANCED_BREP_SHAPE_REPRESENTATION('AdmiC303v95a-none',(#40,#41),#1287);
#12=SHAPE_DEFINITION_REPRESENTATION(#13,#22);
#13=PRODUCT_DEFINITION_SHAPE('','',#14);
#14=PRODUCT_DEFINITION(' ','',#16,#15);
#15=PRODUCT_DEFINITION_CONTEXT('part definition',#21,'design');
#16=PRODUCT_DEFINITION_FORMATION_WITH_SPECIFIED_SOURCE(' ',' ',#18,.NOT_KNOWN.);
#17=PRODUCT_RELATED_PRODUCT_CATEGORY('part','',(#18));
#18=PRODUCT('AdmiC303v95a','AdmiC303v95a',' ',(#19));
#19=PRODUCT_CONTEXT(' ',#21,'mechanical');
#20=APPLICATION_PROTOCOL_DEFINITION('draft international standard',
'automotive_design',1998,#21);
#21=APPLICATION_CONTEXT(
'core data for automotive mechanical design processes');
#22=SHAPE_REPRESENTATION('AdmiC303v95a-none',(#694),#1287);
#23=PRESENTATION_LAYER_ASSIGNMENT('4','Layer 4',(#40,#41));
#24=STYLED_ITEM('',(#26),#40);
#25=STYLED_ITEM('',(#27),#41);
#26=PRESENTATION_STYLE_ASSIGNMENT((#28));
#27=PRESENTATION_STYLE_ASSIGNMENT((#29));
#28=SURFACE_STYLE_USAGE(.BOTH.,#30);
#29=SURFACE_STYLE_USAGE(.BOTH.,#31);
#30=SURFACE_SIDE_STYLE('',(#32));
#31=SURFACE_SIDE_STYLE('',(#33));
#32=SURFACE_STYLE_FILL_AREA(#34);
#33=SURFACE_STYLE_FILL_AREA(#35);
#34=FILL_AREA_STYLE('',(#36));
#35=FILL_AREA_STYLE('',(#37));
#36=FILL_AREA_STYLE_COLOUR('',#38);
#37=FILL_AREA_STYLE_COLOUR('',#39);
#38=COLOUR_RGB('6 (Yellow)',0.725490196078431,0.658808270389868,0.172533760585946);
#39=COLOUR_RGB('9 (Pink)',0.827450980392157,0.513725490196078,0.505882352941176);
#40=MANIFOLD_SOLID_BREP('',#42);
#41=MANIFOLD_SOLID_BREP('',#43);
#42=CLOSED_SHELL('',(#68,#69,#70,#71,#72,#73,#74,#75,#76,#77,#78,#79,#80,
#81,#82,#83,#84,#85,#86,#87,#88,#89,#90,#91,#92,#93,#94,#95));
#43=CLOSED_SHELL('',(#96,#97,#98,#99,#100,#101,#102,#103,#104,#105,#106,
#107));
#44=CONICAL_SURFACE('',#745,2.75,59.);
#45=VERTEX_LOOP('',#513);
#46=TOROIDAL_SURFACE('',#737,18.,2.);
#47=TOROIDAL_SURFACE('',#756,18.,2.);
#48=CYLINDRICAL_SURFACE('',#710,3.25);
#49=CYLINDRICAL_SURFACE('',#716,20.);
#50=CYLINDRICAL_SURFACE('',#721,3.5);
#51=CYLINDRICAL_SURFACE('',#724,2.45);
#52=CYLINDRICAL_SURFACE('',#725,5.5);
#53=CYLINDRICAL_SURFACE('',#730,2.5);
#54=CYLINDRICAL_SURFACE('',#734,2.45);
#55=CYLINDRICAL_SURFACE('',#746,2.5);
#56=CYLINDRICAL_SURFACE('',#747,2.5);
#57=CYLINDRICAL_SURFACE('',#748,1.5);
#58=CYLINDRICAL_SURFACE('',#754,20.);
#59=CYLINDRICAL_SURFACE('',#764,3.25);
#60=CYLINDRICAL_SURFACE('',#767,5.5);
#61=CYLINDRICAL_SURFACE('',#769,3.25);
#62=CYLINDRICAL_SURFACE('',#772,5.5);
#63=B_SPLINE_CURVE_WITH_KNOTS('',3,(#1014,#1015,#1016,#1017,#1018,#1019,
#1020,#1021,#1022,#1023,#1024,#1025,#1026,#1027,#1028,#1029,#1030,#1031,
#1032),.UNSPECIFIED.,.F.,.F.,(4,3,3,3,3,3,4),(0.,0.0883694079941798,0.302888089360314,
0.435571368813547,0.650620133381808,0.865654597970199,1.),.UNSPECIFIED.);
#64=B_SPLINE_CURVE_WITH_KNOTS('',3,(#1058,#1059,#1060,#1061,#1062,#1063,
#1064,#1065,#1066,#1067,#1068,#1069,#1070,#1071,#1072,#1073,#1074,#1075,
#1076,#1077,#1078,#1079,#1080,#1081,#1082,#1083,#1084,#1085,#1086,#1087,
#1088,#1089,#1090,#1091,#1092,#1093,#1094,#1095,#1096,#1097,#1098,#1099,
#1100,#1101,#1102,#1103,#1104,#1105,#1106,#1107,#1108,#1109,#1110,#1111,
#1112,#1113,#1114,#1115),.UNSPECIFIED.,.T.,.F.,(1,3,3,3,3,3,3,3,3,3,3,3,
3,3,3,3,3,3,3,3,3,1),(-0.0465878373621914,0.,0.0446210770801539,0.089303695036621,
0.133295282433776,0.178148249158454,0.225871858001248,0.278644953341898,
0.338609251690445,0.406580244512504,0.478471081586832,0.522195258692872,
0.566451822313619,0.603968588836356,0.640443535400506,0.6937437885329,0.761131615828976,
0.829117426193193,0.900294335918712,0.953412162637809,1.,1.04462107708015),
.UNSPECIFIED.);
#65=B_SPLINE_CURVE_WITH_KNOTS('',3,(#1117,#1118,#1119,#1120,#1121,#1122,
#1123,#1124,#1125,#1126,#1127,#1128,#1129,#1130,#1131,#1132),.UNSPECIFIED.,
.F.,.F.,(4,3,3,3,3,4),(0.,0.216725625188376,0.433407757114207,0.650600893380104,
0.866238887569583,1.),.UNSPECIFIED.);
#66=B_SPLINE_CURVE_WITH_KNOTS('',3,(#1147,#1148,#1149,#1150,#1151,#1152,
#1153,#1154,#1155,#1156,#1157,#1158,#1159,#1160,#1161,#1162,#1163,#1164,
#1165,#1166,#1167,#1168),.UNSPECIFIED.,.T.,.F.,(2,2,2,2,2,2,2,2,2,2,2,2,
2),(-0.12500000000001,0.,0.124999999999994,0.249999999999988,0.374999999999983,
0.499999999999977,0.624999999999971,0.687499999999976,0.74999999999998,0.812499999999985,
0.87499999999999,1.,1.12499999999999),.UNSPECIFIED.);
#67=B_SPLINE_CURVE_WITH_KNOTS('',3,(#1191,#1192,#1193,#1194,#1195,#1196,
#1197,#1198,#1199,#1200,#1201,#1202,#1203,#1204,#1205,#1206),.UNSPECIFIED.,
.F.,.F.,(4,3,3,3,3,4),(0.,0.215324872476029,0.430660970832945,0.645824952805962,
0.860697432679156,1.),.UNSPECIFIED.);
#68=ADVANCED_FACE('',(#166,#130),#108,.T.);
#69=ADVANCED_FACE('',(#167),#109,.F.);
#70=ADVANCED_FACE('',(#131,#168),#110,.F.);
#71=ADVANCED_FACE('',(#132,#169),#111,.T.);
#72=ADVANCED_FACE('',(#170),#48,.F.);
#73=ADVANCED_FACE('',(#171),#112,.F.);
#74=ADVANCED_FACE('',(#133,#172),#49,.T.);
#75=ADVANCED_FACE('',(#173,#134),#113,.F.);
#76=ADVANCED_FACE('',(#135,#136),#50,.F.);
#77=ADVANCED_FACE('',(#174),#51,.F.);
#78=ADVANCED_FACE('',(#137,#138),#52,.F.);
#79=ADVANCED_FACE('',(#139,#175),#114,.F.);
#80=ADVANCED_FACE('',(#176),#115,.F.);
#81=ADVANCED_FACE('',(#177),#116,.T.);
#82=ADVANCED_FACE('',(#178),#117,.F.);
#83=ADVANCED_FACE('',(#140,#141),#53,.F.);
#84=ADVANCED_FACE('',(#179),#118,.F.);
#85=ADVANCED_FACE('',(#180),#54,.F.);
#86=ADVANCED_FACE('',(#181),#119,.T.);
#87=ADVANCED_FACE('',(#182),#46,.T.);
#88=ADVANCED_FACE('',(#142,#183),#120,.T.);
#89=ADVANCED_FACE('',(#184),#121,.T.);
#90=ADVANCED_FACE('',(#185),#122,.F.);
#91=ADVANCED_FACE('',(#186),#123,.T.);
#92=ADVANCED_FACE('',(#187,#143),#44,.F.);
#93=ADVANCED_FACE('',(#144,#145),#55,.F.);
#94=ADVANCED_FACE('',(#146,#147),#56,.F.);
#95=ADVANCED_FACE('',(#188),#57,.F.);
#96=ADVANCED_FACE('',(#148,#189),#124,.F.);
#97=ADVANCED_FACE('',(#149,#150),#58,.T.);
#98=ADVANCED_FACE('',(#151,#152),#47,.T.);
#99=ADVANCED_FACE('',(#153,#154,#190),#125,.T.);
#100=ADVANCED_FACE('',(#191),#126,.F.);
#101=ADVANCED_FACE('',(#155,#192),#127,.F.);
#102=ADVANCED_FACE('',(#156,#157),#59,.F.);
#103=ADVANCED_FACE('',(#158,#193),#128,.F.);
#104=ADVANCED_FACE('',(#159,#160),#60,.F.);
#105=ADVANCED_FACE('',(#161,#162),#61,.F.);
#106=ADVANCED_FACE('',(#163,#194),#129,.F.);
#107=ADVANCED_FACE('',(#164,#165),#62,.F.);
#108=PLANE('',#698);
#109=PLANE('',#700);
#110=PLANE('',#704);
#111=PLANE('',#706);
#112=PLANE('',#711);
#113=PLANE('',#719);
#114=PLANE('',#726);
#115=PLANE('',#727);
#116=PLANE('',#728);
#117=PLANE('',#729);
#118=PLANE('',#732);
#119=PLANE('',#736);
#120=PLANE('',#739);
#121=PLANE('',#740);
#122=PLANE('',#742);
#123=PLANE('',#743);
#124=PLANE('',#751);
#125=PLANE('',#759);
#126=PLANE('',#760);
#127=PLANE('',#762);
#128=PLANE('',#766);
#129=PLANE('',#771);
#130=FACE_BOUND('',#196,.T.);
#131=FACE_BOUND('',#198,.T.);
#132=FACE_BOUND('',#200,.T.);
#133=FACE_BOUND('',#204,.T.);
#134=FACE_BOUND('',#207,.T.);
#135=FACE_BOUND('',#208,.T.);
#136=FACE_BOUND('',#209,.T.);
#137=FACE_BOUND('',#211,.T.);
#138=FACE_BOUND('',#212,.T.);
#139=FACE_BOUND('',#213,.T.);
#140=FACE_BOUND('',#218,.T.);
#141=FACE_BOUND('',#219,.T.);
#142=FACE_BOUND('',#224,.T.);
#143=FACE_BOUND('',#45,.T.);
#144=FACE_BOUND('',#230,.T.);
#145=FACE_BOUND('',#231,.T.);
#146=FACE_BOUND('',#232,.T.);
#147=FACE_BOUND('',#233,.T.);
#148=FACE_BOUND('',#235,.T.);
#149=FACE_BOUND('',#237,.T.);
#150=FACE_BOUND('',#238,.T.);
#151=FACE_BOUND('',#239,.T.);
#152=FACE_BOUND('',#240,.T.);
#153=FACE_BOUND('',#241,.T.);
#154=FACE_BOUND('',#242,.T.);
#155=FACE_BOUND('',#245,.T.);
#156=FACE_BOUND('',#247,.T.);
#157=FACE_BOUND('',#248,.T.);
#158=FACE_BOUND('',#249,.T.);
#159=FACE_BOUND('',#251,.T.);
#160=FACE_BOUND('',#252,.T.);
#161=FACE_BOUND('',#253,.T.);
#162=FACE_BOUND('',#254,.T.);
#163=FACE_BOUND('',#255,.T.);
#164=FACE_BOUND('',#257,.T.);
#165=FACE_BOUND('',#258,.T.);
#166=FACE_OUTER_BOUND('',#195,.T.);
#167=FACE_OUTER_BOUND('',#197,.T.);
#168=FACE_OUTER_BOUND('',#199,.T.);
#169=FACE_OUTER_BOUND('',#201,.T.);
#170=FACE_OUTER_BOUND('',#202,.T.);
#171=FACE_OUTER_BOUND('',#203,.T.);
#172=FACE_OUTER_BOUND('',#205,.T.);
#173=FACE_OUTER_BOUND('',#206,.T.);
#174=FACE_OUTER_BOUND('',#210,.T.);
#175=FACE_OUTER_BOUND('',#214,.T.);
#176=FACE_OUTER_BOUND('',#215,.T.);
#177=FACE_OUTER_BOUND('',#216,.T.);
#178=FACE_OUTER_BOUND('',#217,.T.);
#179=FACE_OUTER_BOUND('',#220,.T.);
#180=FACE_OUTER_BOUND('',#221,.T.);
#181=FACE_OUTER_BOUND('',#222,.T.);
#182=FACE_OUTER_BOUND('',#223,.T.);
#183=FACE_OUTER_BOUND('',#225,.T.);
#184=FACE_OUTER_BOUND('',#226,.T.);
#185=FACE_OUTER_BOUND('',#227,.T.);
#186=FACE_OUTER_BOUND('',#228,.T.);
#187=FACE_OUTER_BOUND('',#229,.T.);
#188=FACE_OUTER_BOUND('',#234,.T.);
#189=FACE_OUTER_BOUND('',#236,.T.);
#190=FACE_OUTER_BOUND('',#243,.T.);
#191=FACE_OUTER_BOUND('',#244,.T.);
#192=FACE_OUTER_BOUND('',#246,.T.);
#193=FACE_OUTER_BOUND('',#250,.T.);
#194=FACE_OUTER_BOUND('',#256,.T.);
#195=EDGE_LOOP('',(#297,#298,#299,#300));
#196=EDGE_LOOP('',(#301));
#197=EDGE_LOOP('',(#302,#303,#304,#305));
#198=EDGE_LOOP('',(#306));
#199=EDGE_LOOP('',(#307,#308,#309,#310));
#200=EDGE_LOOP('',(#311));
#201=EDGE_LOOP('',(#312,#313,#314,#315,#316,#317,#318,#319,#320,#321,#322));
#202=EDGE_LOOP('',(#323,#324,#325,#326,#327,#328,#329,#330,#331,#332));
#203=EDGE_LOOP('',(#333,#334,#335,#336));
#204=EDGE_LOOP('',(#337));
#205=EDGE_LOOP('',(#338,#339,#340,#341,#342,#343,#344,#345,#346,#347,#348,
#349,#350,#351,#352));
#206=EDGE_LOOP('',(#353));
#207=EDGE_LOOP('',(#354));
#208=EDGE_LOOP('',(#355));
#209=EDGE_LOOP('',(#356));
#210=EDGE_LOOP('',(#357,#358,#359,#360));
#211=EDGE_LOOP('',(#361));
#212=EDGE_LOOP('',(#362));
#213=EDGE_LOOP('',(#363));
#214=EDGE_LOOP('',(#364,#365,#366,#367,#368));
#215=EDGE_LOOP('',(#369,#370,#371,#372));
#216=EDGE_LOOP('',(#373,#374,#375,#376,#377,#378));
#217=EDGE_LOOP('',(#379,#380,#381,#382));
#218=EDGE_LOOP('',(#383));
#219=EDGE_LOOP('',(#384));
#220=EDGE_LOOP('',(#385,#386));
#221=EDGE_LOOP('',(#387,#388,#389,#390));
#222=EDGE_LOOP('',(#391,#392,#393,#394,#395,#396,#397,#398));
#223=EDGE_LOOP('',(#399,#400,#401,#402,#403));
#224=EDGE_LOOP('',(#404));
#225=EDGE_LOOP('',(#405,#406,#407,#408,#409,#410));
#226=EDGE_LOOP('',(#411,#412,#413,#414));
#227=EDGE_LOOP('',(#415,#416,#417,#418,#419));
#228=EDGE_LOOP('',(#420,#421,#422,#423));
#229=EDGE_LOOP('',(#424));
#230=EDGE_LOOP('',(#425));
#231=EDGE_LOOP('',(#426));
#232=EDGE_LOOP('',(#427));
#233=EDGE_LOOP('',(#428));
#234=EDGE_LOOP('',(#429,#430,#431,#432));
#235=EDGE_LOOP('',(#433));
#236=EDGE_LOOP('',(#434,#435));
#237=EDGE_LOOP('',(#436,#437,#438,#439));
#238=EDGE_LOOP('',(#440));
#239=EDGE_LOOP('',(#441));
#240=EDGE_LOOP('',(#442));
#241=EDGE_LOOP('',(#443));
#242=EDGE_LOOP('',(#444));
#243=EDGE_LOOP('',(#445));
#244=EDGE_LOOP('',(#446,#447,#448,#449));
#245=EDGE_LOOP('',(#450));
#246=EDGE_LOOP('',(#451,#452));
#247=EDGE_LOOP('',(#453));
#248=EDGE_LOOP('',(#454));
#249=EDGE_LOOP('',(#455));
#250=EDGE_LOOP('',(#456));
#251=EDGE_LOOP('',(#457));
#252=EDGE_LOOP('',(#458));
#253=EDGE_LOOP('',(#459));
#254=EDGE_LOOP('',(#460));
#255=EDGE_LOOP('',(#461));
#256=EDGE_LOOP('',(#462));
#257=EDGE_LOOP('',(#463));
#258=EDGE_LOOP('',(#464));
#259=CIRCLE('',#695,3.25);
#260=CIRCLE('',#696,20.);
#261=CIRCLE('',#697,2.5);
#262=CIRCLE('',#699,20.);
#263=CIRCLE('',#701,2.5);
#264=CIRCLE('',#702,3.25);
#265=CIRCLE('',#703,20.);
#266=CIRCLE('',#705,2.5);
#267=CIRCLE('',#707,3.25);
#268=CIRCLE('',#708,3.25);
#269=CIRCLE('',#709,3.25);
#270=CIRCLE('',#712,20.);
#271=CIRCLE('',#713,20.);
#272=CIRCLE('',#714,20.);
#273=CIRCLE('',#715,20.);
#274=CIRCLE('',#717,5.5);
#275=CIRCLE('',#718,3.5);
#276=CIRCLE('',#720,3.5);
#277=CIRCLE('',#722,2.45);
#278=CIRCLE('',#723,2.45);
#279=CIRCLE('',#731,2.45);
#280=CIRCLE('',#733,2.45);
#281=CIRCLE('',#735,18.);
#282=CIRCLE('',#738,2.5);
#283=CIRCLE('',#741,1.5);
#284=CIRCLE('',#744,2.5);
#285=CIRCLE('',#749,3.25);
#286=CIRCLE('',#750,20.);
#287=CIRCLE('',#752,20.);
#288=CIRCLE('',#753,20.);
#289=CIRCLE('',#755,18.);
#290=CIRCLE('',#757,5.5);
#291=CIRCLE('',#758,5.5);
#292=CIRCLE('',#761,3.25);
#293=CIRCLE('',#763,3.25);
#294=CIRCLE('',#765,5.5);
#295=CIRCLE('',#768,3.25);
#296=CIRCLE('',#770,5.5);
#297=ORIENTED_EDGE('',*,*,#528,.T.);
#298=ORIENTED_EDGE('',*,*,#529,.F.);
#299=ORIENTED_EDGE('',*,*,#530,.F.);
#300=ORIENTED_EDGE('',*,*,#531,.F.);
#301=ORIENTED_EDGE('',*,*,#532,.F.);
#302=ORIENTED_EDGE('',*,*,#533,.F.);
#303=ORIENTED_EDGE('',*,*,#534,.T.);
#304=ORIENTED_EDGE('',*,*,#535,.F.);
#305=ORIENTED_EDGE('',*,*,#536,.F.);
#306=ORIENTED_EDGE('',*,*,#537,.T.);
#307=ORIENTED_EDGE('',*,*,#538,.T.);
#308=ORIENTED_EDGE('',*,*,#539,.F.);
#309=ORIENTED_EDGE('',*,*,#540,.F.);
#310=ORIENTED_EDGE('',*,*,#541,.F.);
#311=ORIENTED_EDGE('',*,*,#542,.T.);
#312=ORIENTED_EDGE('',*,*,#543,.F.);
#313=ORIENTED_EDGE('',*,*,#544,.F.);
#314=ORIENTED_EDGE('',*,*,#545,.F.);
#315=ORIENTED_EDGE('',*,*,#536,.T.);
#316=ORIENTED_EDGE('',*,*,#546,.F.);
#317=ORIENTED_EDGE('',*,*,#547,.T.);
#318=ORIENTED_EDGE('',*,*,#548,.T.);
#319=ORIENTED_EDGE('',*,*,#549,.F.);
#320=ORIENTED_EDGE('',*,*,#550,.F.);
#321=ORIENTED_EDGE('',*,*,#551,.F.);
#322=ORIENTED_EDGE('',*,*,#552,.T.);
#323=ORIENTED_EDGE('',*,*,#553,.T.);
#324=ORIENTED_EDGE('',*,*,#539,.T.);
#325=ORIENTED_EDGE('',*,*,#554,.F.);
#326=ORIENTED_EDGE('',*,*,#555,.T.);
#327=ORIENTED_EDGE('',*,*,#543,.T.);
#328=ORIENTED_EDGE('',*,*,#556,.T.);
#329=ORIENTED_EDGE('',*,*,#557,.T.);
#330=ORIENTED_EDGE('',*,*,#558,.T.);
#331=ORIENTED_EDGE('',*,*,#559,.F.);
#332=ORIENTED_EDGE('',*,*,#529,.T.);
#333=ORIENTED_EDGE('',*,*,#560,.F.);
#334=ORIENTED_EDGE('',*,*,#540,.T.);
#335=ORIENTED_EDGE('',*,*,#553,.F.);
#336=ORIENTED_EDGE('',*,*,#528,.F.);
#337=ORIENTED_EDGE('',*,*,#561,.F.);
#338=ORIENTED_EDGE('',*,*,#546,.T.);
#339=ORIENTED_EDGE('',*,*,#535,.T.);
#340=ORIENTED_EDGE('',*,*,#562,.T.);
#341=ORIENTED_EDGE('',*,*,#563,.T.);
#342=ORIENTED_EDGE('',*,*,#564,.T.);
#343=ORIENTED_EDGE('',*,*,#565,.F.);
#344=ORIENTED_EDGE('',*,*,#541,.T.);
#345=ORIENTED_EDGE('',*,*,#560,.T.);
#346=ORIENTED_EDGE('',*,*,#531,.T.);
#347=ORIENTED_EDGE('',*,*,#566,.F.);
#348=ORIENTED_EDGE('',*,*,#567,.T.);
#349=ORIENTED_EDGE('',*,*,#568,.T.);
#350=ORIENTED_EDGE('',*,*,#569,.T.);
#351=ORIENTED_EDGE('',*,*,#570,.F.);
#352=ORIENTED_EDGE('',*,*,#571,.T.);
#353=ORIENTED_EDGE('',*,*,#572,.T.);
#354=ORIENTED_EDGE('',*,*,#573,.F.);
#355=ORIENTED_EDGE('',*,*,#573,.T.);
#356=ORIENTED_EDGE('',*,*,#574,.T.);
#357=ORIENTED_EDGE('',*,*,#575,.F.);
#358=ORIENTED_EDGE('',*,*,#576,.F.);
#359=ORIENTED_EDGE('',*,*,#577,.F.);
#360=ORIENTED_EDGE('',*,*,#578,.F.);
#361=ORIENTED_EDGE('',*,*,#570,.T.);
#362=ORIENTED_EDGE('',*,*,#572,.F.);
#363=ORIENTED_EDGE('',*,*,#574,.F.);
#364=ORIENTED_EDGE('',*,*,#579,.F.);
#365=ORIENTED_EDGE('',*,*,#580,.T.);
#366=ORIENTED_EDGE('',*,*,#568,.F.);
#367=ORIENTED_EDGE('',*,*,#581,.T.);
#368=ORIENTED_EDGE('',*,*,#578,.T.);
#369=ORIENTED_EDGE('',*,*,#530,.T.);
#370=ORIENTED_EDGE('',*,*,#559,.T.);
#371=ORIENTED_EDGE('',*,*,#582,.T.);
#372=ORIENTED_EDGE('',*,*,#566,.T.);
#373=ORIENTED_EDGE('',*,*,#558,.F.);
#374=ORIENTED_EDGE('',*,*,#583,.F.);
#375=ORIENTED_EDGE('',*,*,#575,.T.);
#376=ORIENTED_EDGE('',*,*,#581,.F.);
#377=ORIENTED_EDGE('',*,*,#567,.F.);
#378=ORIENTED_EDGE('',*,*,#582,.F.);
#379=ORIENTED_EDGE('',*,*,#557,.F.);
#380=ORIENTED_EDGE('',*,*,#584,.F.);
#381=ORIENTED_EDGE('',*,*,#576,.T.);
#382=ORIENTED_EDGE('',*,*,#583,.T.);
#383=ORIENTED_EDGE('',*,*,#561,.T.);
#384=ORIENTED_EDGE('',*,*,#542,.F.);
#385=ORIENTED_EDGE('',*,*,#585,.T.);
#386=ORIENTED_EDGE('',*,*,#550,.T.);
#387=ORIENTED_EDGE('',*,*,#549,.T.);
#388=ORIENTED_EDGE('',*,*,#586,.F.);
#389=ORIENTED_EDGE('',*,*,#551,.T.);
#390=ORIENTED_EDGE('',*,*,#585,.F.);
#391=ORIENTED_EDGE('',*,*,#548,.F.);
#392=ORIENTED_EDGE('',*,*,#587,.T.);
#393=ORIENTED_EDGE('',*,*,#579,.T.);
#394=ORIENTED_EDGE('',*,*,#577,.T.);
#395=ORIENTED_EDGE('',*,*,#584,.T.);
#396=ORIENTED_EDGE('',*,*,#556,.F.);
#397=ORIENTED_EDGE('',*,*,#552,.F.);
#398=ORIENTED_EDGE('',*,*,#586,.T.);
#399=ORIENTED_EDGE('',*,*,#580,.F.);
#400=ORIENTED_EDGE('',*,*,#587,.F.);
#401=ORIENTED_EDGE('',*,*,#547,.F.);
#402=ORIENTED_EDGE('',*,*,#571,.F.);
#403=ORIENTED_EDGE('',*,*,#569,.F.);
#404=ORIENTED_EDGE('',*,*,#588,.T.);
#405=ORIENTED_EDGE('',*,*,#589,.F.);
#406=ORIENTED_EDGE('',*,*,#564,.F.);
#407=ORIENTED_EDGE('',*,*,#590,.F.);
#408=ORIENTED_EDGE('',*,*,#591,.T.);
#409=ORIENTED_EDGE('',*,*,#544,.T.);
#410=ORIENTED_EDGE('',*,*,#555,.F.);
#411=ORIENTED_EDGE('',*,*,#563,.F.);
#412=ORIENTED_EDGE('',*,*,#592,.T.);
#413=ORIENTED_EDGE('',*,*,#593,.T.);
#414=ORIENTED_EDGE('',*,*,#590,.T.);
#415=ORIENTED_EDGE('',*,*,#593,.F.);
#416=ORIENTED_EDGE('',*,*,#594,.T.);
#417=ORIENTED_EDGE('',*,*,#533,.T.);
#418=ORIENTED_EDGE('',*,*,#545,.T.);
#419=ORIENTED_EDGE('',*,*,#591,.F.);
#420=ORIENTED_EDGE('',*,*,#589,.T.);
#421=ORIENTED_EDGE('',*,*,#554,.T.);
#422=ORIENTED_EDGE('',*,*,#538,.F.);
#423=ORIENTED_EDGE('',*,*,#565,.T.);
#424=ORIENTED_EDGE('',*,*,#595,.F.);
#425=ORIENTED_EDGE('',*,*,#595,.T.);
#426=ORIENTED_EDGE('',*,*,#588,.F.);
#427=ORIENTED_EDGE('',*,*,#537,.F.);
#428=ORIENTED_EDGE('',*,*,#532,.T.);
#429=ORIENTED_EDGE('',*,*,#562,.F.);
#430=ORIENTED_EDGE('',*,*,#534,.F.);
#431=ORIENTED_EDGE('',*,*,#594,.F.);
#432=ORIENTED_EDGE('',*,*,#592,.F.);
#433=ORIENTED_EDGE('',*,*,#596,.F.);
#434=ORIENTED_EDGE('',*,*,#597,.F.);
#435=ORIENTED_EDGE('',*,*,#598,.F.);
#436=ORIENTED_EDGE('',*,*,#597,.T.);
#437=ORIENTED_EDGE('',*,*,#599,.T.);
#438=ORIENTED_EDGE('',*,*,#600,.F.);
#439=ORIENTED_EDGE('',*,*,#601,.T.);
#440=ORIENTED_EDGE('',*,*,#602,.T.);
#441=ORIENTED_EDGE('',*,*,#602,.F.);
#442=ORIENTED_EDGE('',*,*,#603,.F.);
#443=ORIENTED_EDGE('',*,*,#604,.T.);
#444=ORIENTED_EDGE('',*,*,#605,.T.);
#445=ORIENTED_EDGE('',*,*,#603,.T.);
#446=ORIENTED_EDGE('',*,*,#606,.T.);
#447=ORIENTED_EDGE('',*,*,#599,.F.);
#448=ORIENTED_EDGE('',*,*,#598,.T.);
#449=ORIENTED_EDGE('',*,*,#601,.F.);
#450=ORIENTED_EDGE('',*,*,#607,.T.);
#451=ORIENTED_EDGE('',*,*,#606,.F.);
#452=ORIENTED_EDGE('',*,*,#600,.T.);
#453=ORIENTED_EDGE('',*,*,#596,.T.);
#454=ORIENTED_EDGE('',*,*,#608,.F.);
#455=ORIENTED_EDGE('',*,*,#608,.T.);
#456=ORIENTED_EDGE('',*,*,#609,.F.);
#457=ORIENTED_EDGE('',*,*,#609,.T.);
#458=ORIENTED_EDGE('',*,*,#605,.F.);
#459=ORIENTED_EDGE('',*,*,#610,.F.);
#460=ORIENTED_EDGE('',*,*,#607,.F.);
#461=ORIENTED_EDGE('',*,*,#610,.T.);
#462=ORIENTED_EDGE('',*,*,#611,.F.);
#463=ORIENTED_EDGE('',*,*,#611,.T.);
#464=ORIENTED_EDGE('',*,*,#604,.F.);
#465=VERTEX_POINT('',#974);
#466=VERTEX_POINT('',#975);
#467=VERTEX_POINT('',#977);
#468=VERTEX_POINT('',#979);
#469=VERTEX_POINT('',#982);
#470=VERTEX_POINT('',#985);
#471=VERTEX_POINT('',#986);
#472=VERTEX_POINT('',#988);
#473=VERTEX_POINT('',#990);
#474=VERTEX_POINT('',#994);
#475=VERTEX_POINT('',#996);
#476=VERTEX_POINT('',#997);
#477=VERTEX_POINT('',#999);
#478=VERTEX_POINT('',#1001);
#479=VERTEX_POINT('',#1005);
#480=VERTEX_POINT('',#1007);
#481=VERTEX_POINT('',#1008);
#482=VERTEX_POINT('',#1010);
#483=VERTEX_POINT('',#1013);
#484=VERTEX_POINT('',#1033);
#485=VERTEX_POINT('',#1035);
#486=VERTEX_POINT('',#1037);
#487=VERTEX_POINT('',#1039);
#488=VERTEX_POINT('',#1041);
#489=VERTEX_POINT('',#1046);
#490=VERTEX_POINT('',#1049);
#491=VERTEX_POINT('',#1051);
#492=VERTEX_POINT('',#1053);
#493=VERTEX_POINT('',#1116);
#494=VERTEX_POINT('',#1133);
#495=VERTEX_POINT('',#1135);
#496=VERTEX_POINT('',#1137);
#497=VERTEX_POINT('',#1140);
#498=VERTEX_POINT('',#1142);
#499=VERTEX_POINT('',#1144);
#500=VERTEX_POINT('',#1146);
#501=VERTEX_POINT('',#1172);
#502=VERTEX_POINT('',#1174);
#503=VERTEX_POINT('',#1177);
#504=VERTEX_POINT('',#1180);
#505=VERTEX_POINT('',#1181);
#506=VERTEX_POINT('',#1183);
#507=VERTEX_POINT('',#1185);
#508=VERTEX_POINT('',#1190);
#509=VERTEX_POINT('',#1224);
#510=VERTEX_POINT('',#1227);
#511=VERTEX_POINT('',#1231);
#512=VERTEX_POINT('',#1238);
#513=VERTEX_POINT('',#1239);
#514=VERTEX_POINT('',#1245);
#515=VERTEX_POINT('',#1247);
#516=VERTEX_POINT('',#1248);
#517=VERTEX_POINT('',#1252);
#518=VERTEX_POINT('',#1254);
#519=VERTEX_POINT('',#1257);
#520=VERTEX_POINT('',#1260);
#521=VERTEX_POINT('',#1263);
#522=VERTEX_POINT('',#1265);
#523=VERTEX_POINT('',#1270);
#524=VERTEX_POINT('',#1273);
#525=VERTEX_POINT('',#1276);
#526=VERTEX_POINT('',#1280);
#527=VERTEX_POINT('',#1283);
#528=EDGE_CURVE('',#465,#466,#612,.T.);
#529=EDGE_CURVE('',#467,#466,#259,.T.);
#530=EDGE_CURVE('',#468,#467,#613,.T.);
#531=EDGE_CURVE('',#465,#468,#260,.T.);
#532=EDGE_CURVE('',#469,#469,#261,.T.);
#533=EDGE_CURVE('',#470,#471,#614,.T.);
#534=EDGE_CURVE('',#470,#472,#615,.T.);
#535=EDGE_CURVE('',#473,#472,#262,.T.);
#536=EDGE_CURVE('',#471,#473,#616,.T.);
#537=EDGE_CURVE('',#474,#474,#263,.T.);
#538=EDGE_CURVE('',#475,#476,#617,.T.);
#539=EDGE_CURVE('',#477,#476,#264,.T.);
#540=EDGE_CURVE('',#478,#477,#618,.T.);
#541=EDGE_CURVE('',#475,#478,#265,.T.);
#542=EDGE_CURVE('',#479,#479,#266,.T.);
#543=EDGE_CURVE('',#480,#481,#619,.T.);
#544=EDGE_CURVE('',#482,#480,#620,.T.);
#545=EDGE_CURVE('',#471,#482,#621,.T.);
#546=EDGE_CURVE('',#483,#473,#622,.T.);
#547=EDGE_CURVE('',#483,#484,#63,.T.);
#548=EDGE_CURVE('',#484,#485,#623,.T.);
#549=EDGE_CURVE('',#486,#485,#624,.T.);
#550=EDGE_CURVE('',#487,#486,#625,.T.);
#551=EDGE_CURVE('',#488,#487,#626,.T.);
#552=EDGE_CURVE('',#488,#481,#627,.T.);
#553=EDGE_CURVE('',#466,#477,#628,.T.);
#554=EDGE_CURVE('',#489,#476,#629,.T.);
#555=EDGE_CURVE('',#489,#480,#267,.T.);
#556=EDGE_CURVE('',#481,#490,#268,.T.);
#557=EDGE_CURVE('',#490,#491,#630,.T.);
#558=EDGE_CURVE('',#491,#492,#269,.T.);
#559=EDGE_CURVE('',#467,#492,#631,.T.);
#560=EDGE_CURVE('',#478,#465,#632,.T.);
#561=EDGE_CURVE('',#493,#493,#64,.T.);
#562=EDGE_CURVE('',#472,#494,#65,.T.);
#563=EDGE_CURVE('',#494,#495,#633,.T.);
#564=EDGE_CURVE('',#495,#496,#270,.T.);
#565=EDGE_CURVE('',#475,#496,#634,.T.);
#566=EDGE_CURVE('',#497,#468,#635,.T.);
#567=EDGE_CURVE('',#497,#498,#271,.T.);
#568=EDGE_CURVE('',#498,#499,#636,.T.);
#569=EDGE_CURVE('',#499,#500,#272,.T.);
#570=EDGE_CURVE('',#500,#500,#66,.T.);
#571=EDGE_CURVE('',#500,#483,#273,.T.);
#572=EDGE_CURVE('',#501,#501,#274,.T.);
#573=EDGE_CURVE('',#502,#502,#275,.T.);
#574=EDGE_CURVE('',#503,#503,#276,.T.);
#575=EDGE_CURVE('',#504,#505,#277,.T.);
#576=EDGE_CURVE('',#506,#504,#637,.T.);
#577=EDGE_CURVE('',#507,#506,#278,.T.);
#578=EDGE_CURVE('',#505,#507,#638,.T.);
#579=EDGE_CURVE('',#508,#507,#639,.T.);
#580=EDGE_CURVE('',#508,#499,#67,.T.);
#581=EDGE_CURVE('',#498,#505,#640,.T.);
#582=EDGE_CURVE('',#492,#497,#641,.T.);
#583=EDGE_CURVE('',#504,#491,#642,.T.);
#584=EDGE_CURVE('',#506,#490,#643,.T.);
#585=EDGE_CURVE('',#486,#487,#279,.T.);
#586=EDGE_CURVE('',#488,#485,#280,.T.);
#587=EDGE_CURVE('',#484,#508,#281,.T.);
#588=EDGE_CURVE('',#509,#509,#282,.T.);
#589=EDGE_CURVE('',#496,#489,#644,.T.);
#590=EDGE_CURVE('',#510,#495,#645,.T.);
#591=EDGE_CURVE('',#510,#482,#646,.T.);
#592=EDGE_CURVE('',#494,#511,#647,.T.);
#593=EDGE_CURVE('',#511,#510,#648,.T.);
#594=EDGE_CURVE('',#511,#470,#283,.T.);
#595=EDGE_CURVE('',#512,#512,#284,.T.);
#596=EDGE_CURVE('',#514,#514,#285,.T.);
#597=EDGE_CURVE('',#515,#516,#286,.T.);
#598=EDGE_CURVE('',#516,#515,#649,.T.);
#599=EDGE_CURVE('',#516,#517,#650,.T.);
#600=EDGE_CURVE('',#518,#517,#287,.T.);
#601=EDGE_CURVE('',#518,#515,#651,.T.);
#602=EDGE_CURVE('',#519,#519,#288,.T.);
#603=EDGE_CURVE('',#520,#520,#289,.T.);
#604=EDGE_CURVE('',#521,#521,#290,.T.);
#605=EDGE_CURVE('',#522,#522,#291,.T.);
#606=EDGE_CURVE('',#518,#517,#652,.T.);
#607=EDGE_CURVE('',#523,#523,#292,.T.);
#608=EDGE_CURVE('',#524,#524,#293,.T.);
#609=EDGE_CURVE('',#525,#525,#294,.T.);
#610=EDGE_CURVE('',#526,#526,#295,.T.);
#611=EDGE_CURVE('',#527,#527,#296,.T.);
#612=LINE('',#973,#653);
#613=LINE('',#978,#654);
#614=LINE('',#984,#655);
#615=LINE('',#987,#656);
#616=LINE('',#991,#657);
#617=LINE('',#995,#658);
#618=LINE('',#1000,#659);
#619=LINE('',#1006,#660);
#620=LINE('',#1009,#661);
#621=LINE('',#1011,#662);
#622=LINE('',#1012,#663);
#623=LINE('',#1034,#664);
#624=LINE('',#1036,#665);
#625=LINE('',#1038,#666);
#626=LINE('',#1040,#667);
#627=LINE('',#1042,#668);
#628=LINE('',#1044,#669);
#629=LINE('',#1045,#670);
#630=LINE('',#1050,#671);
#631=LINE('',#1054,#672);
#632=LINE('',#1056,#673);
#633=LINE('',#1134,#674);
#634=LINE('',#1138,#675);
#635=LINE('',#1139,#676);
#636=LINE('',#1143,#677);
#637=LINE('',#1182,#678);
#638=LINE('',#1186,#679);
#639=LINE('',#1189,#680);
#640=LINE('',#1207,#681);
#641=LINE('',#1209,#682);
#642=LINE('',#1211,#683);
#643=LINE('',#1213,#684);
#644=LINE('',#1225,#685);
#645=LINE('',#1226,#686);
#646=LINE('',#1228,#687);
#647=LINE('',#1230,#688);
#648=LINE('',#1232,#689);
#649=LINE('',#1249,#690);
#650=LINE('',#1251,#691);
#651=LINE('',#1255,#692);
#652=LINE('',#1267,#693);
#653=VECTOR('',#775,1.);
#654=VECTOR('',#778,1.);
#655=VECTOR('',#785,1.);
#656=VECTOR('',#786,1.);
#657=VECTOR('',#789,1.);
#658=VECTOR('',#794,1.);
#659=VECTOR('',#797,1.);
#660=VECTOR('',#804,1.);
#661=VECTOR('',#805,1.);
#662=VECTOR('',#806,1.);
#663=VECTOR('',#807,1.);
#664=VECTOR('',#808,1.);
#665=VECTOR('',#809,1.);
#666=VECTOR('',#810,1.);
#667=VECTOR('',#811,1.);
#668=VECTOR('',#812,1.);
#669=VECTOR('',#815,1.);
#670=VECTOR('',#816,1.);
#671=VECTOR('',#821,1.);
#672=VECTOR('',#824,1.);
#673=VECTOR('',#827,1.);
#674=VECTOR('',#830,1.);
#675=VECTOR('',#833,1.);
#676=VECTOR('',#834,1.);
#677=VECTOR('',#837,1.);
#678=VECTOR('',#856,1.);
#679=VECTOR('',#859,1.);
#680=VECTOR('',#864,1.);
#681=VECTOR('',#865,1.);
#682=VECTOR('',#868,1.);
#683=VECTOR('',#871,1.);
#684=VECTOR('',#874,1.);
#685=VECTOR('',#895,1.);
#686=VECTOR('',#896,1.);
#687=VECTOR('',#897,1.);
#688=VECTOR('',#900,1.);
#689=VECTOR('',#901,1.);
#690=VECTOR('',#924,1.);
#691=VECTOR('',#927,1.);
#692=VECTOR('',#930,1.);
#693=VECTOR('',#945,1.);
#694=AXIS2_PLACEMENT_3D('',#972,#773,#774);
#695=AXIS2_PLACEMENT_3D('',#976,#776,#777);
#696=AXIS2_PLACEMENT_3D('',#980,#779,#780);
#697=AXIS2_PLACEMENT_3D('',#981,#781,#782);
#698=AXIS2_PLACEMENT_3D('',#983,#783,#784);
#699=AXIS2_PLACEMENT_3D('',#989,#787,#788);
#700=AXIS2_PLACEMENT_3D('',#992,#790,#791);
#701=AXIS2_PLACEMENT_3D('',#993,#792,#793);
#702=AXIS2_PLACEMENT_3D('',#998,#795,#796);
#703=AXIS2_PLACEMENT_3D('',#1002,#798,#799);
#704=AXIS2_PLACEMENT_3D('',#1003,#800,#801);
#705=AXIS2_PLACEMENT_3D('',#1004,#802,#803);
#706=AXIS2_PLACEMENT_3D('',#1043,#813,#814);
#707=AXIS2_PLACEMENT_3D('',#1047,#817,#818);
#708=AXIS2_PLACEMENT_3D('',#1048,#819,#820);
#709=AXIS2_PLACEMENT_3D('',#1052,#822,#823);
#710=AXIS2_PLACEMENT_3D('',#1055,#825,#826);
#711=AXIS2_PLACEMENT_3D('',#1057,#828,#829);
#712=AXIS2_PLACEMENT_3D('',#1136,#831,#832);
#713=AXIS2_PLACEMENT_3D('',#1141,#835,#836);
#714=AXIS2_PLACEMENT_3D('',#1145,#838,#839);
#715=AXIS2_PLACEMENT_3D('',#1169,#840,#841);
#716=AXIS2_PLACEMENT_3D('',#1170,#842,#843);
#717=AXIS2_PLACEMENT_3D('',#1171,#844,#845);
#718=AXIS2_PLACEMENT_3D('',#1173,#846,#847);
#719=AXIS2_PLACEMENT_3D('',#1175,#848,#849);
#720=AXIS2_PLACEMENT_3D('',#1176,#850,#851);
#721=AXIS2_PLACEMENT_3D('',#1178,#852,#853);
#722=AXIS2_PLACEMENT_3D('',#1179,#854,#855);
#723=AXIS2_PLACEMENT_3D('',#1184,#857,#858);
#724=AXIS2_PLACEMENT_3D('',#1187,#860,#861);
#725=AXIS2_PLACEMENT_3D('',#1188,#862,#863);
#726=AXIS2_PLACEMENT_3D('',#1208,#866,#867);
#727=AXIS2_PLACEMENT_3D('',#1210,#869,#870);
#728=AXIS2_PLACEMENT_3D('',#1212,#872,#873);
#729=AXIS2_PLACEMENT_3D('',#1214,#875,#876);
#730=AXIS2_PLACEMENT_3D('',#1215,#877,#878);
#731=AXIS2_PLACEMENT_3D('',#1216,#879,#880);
#732=AXIS2_PLACEMENT_3D('',#1217,#881,#882);
#733=AXIS2_PLACEMENT_3D('',#1218,#883,#884);
#734=AXIS2_PLACEMENT_3D('',#1219,#885,#886);
#735=AXIS2_PLACEMENT_3D('',#1220,#887,#888);
#736=AXIS2_PLACEMENT_3D('',#1221,#889,#890);
#737=AXIS2_PLACEMENT_3D('',#1222,#891,#892);
#738=AXIS2_PLACEMENT_3D('',#1223,#893,#894);
#739=AXIS2_PLACEMENT_3D('',#1229,#898,#899);
#740=AXIS2_PLACEMENT_3D('',#1233,#902,#903);
#741=AXIS2_PLACEMENT_3D('',#1234,#904,#905);
#742=AXIS2_PLACEMENT_3D('',#1235,#906,#907);
#743=AXIS2_PLACEMENT_3D('',#1236,#908,#909);
#744=AXIS2_PLACEMENT_3D('',#1237,#910,#911);
#745=AXIS2_PLACEMENT_3D('',#1240,#912,#913);
#746=AXIS2_PLACEMENT_3D('',#1241,#914,#915);
#747=AXIS2_PLACEMENT_3D('',#1242,#916,#917);
#748=AXIS2_PLACEMENT_3D('',#1243,#918,#919);
#749=AXIS2_PLACEMENT_3D('',#1244,#920,#921);
#750=AXIS2_PLACEMENT_3D('',#1246,#922,#923);
#751=AXIS2_PLACEMENT_3D('',#1250,#925,#926);
#752=AXIS2_PLACEMENT_3D('',#1253,#928,#929);
#753=AXIS2_PLACEMENT_3D('',#1256,#931,#932);
#754=AXIS2_PLACEMENT_3D('',#1258,#933,#934);
#755=AXIS2_PLACEMENT_3D('',#1259,#935,#936);
#756=AXIS2_PLACEMENT_3D('',#1261,#937,#938);
#757=AXIS2_PLACEMENT_3D('',#1262,#939,#940);
#758=AXIS2_PLACEMENT_3D('',#1264,#941,#942);
#759=AXIS2_PLACEMENT_3D('',#1266,#943,#944);
#760=AXIS2_PLACEMENT_3D('',#1268,#946,#947);
#761=AXIS2_PLACEMENT_3D('',#1269,#948,#949);
#762=AXIS2_PLACEMENT_3D('',#1271,#950,#951);
#763=AXIS2_PLACEMENT_3D('',#1272,#952,#953);
#764=AXIS2_PLACEMENT_3D('',#1274,#954,#955);
#765=AXIS2_PLACEMENT_3D('',#1275,#956,#957);
#766=AXIS2_PLACEMENT_3D('',#1277,#958,#959);
#767=AXIS2_PLACEMENT_3D('',#1278,#960,#961);
#768=AXIS2_PLACEMENT_3D('',#1279,#962,#963);
#769=AXIS2_PLACEMENT_3D('',#1281,#964,#965);
#770=AXIS2_PLACEMENT_3D('',#1282,#966,#967);
#771=AXIS2_PLACEMENT_3D('',#1284,#968,#969);
#772=AXIS2_PLACEMENT_3D('',#1285,#970,#971);
#773=DIRECTION('',(0.,0.,1.));
#774=DIRECTION('',(1.,0.,0.));
#775=DIRECTION('',(-2.49789201680602E-014,-1.,-7.62974067683827E-015));
#776=DIRECTION('',(0.,1.63043304224492E-014,-1.));
#777=DIRECTION('',(-0.999999999999992,3.52282305890675E-014,0.));
#778=DIRECTION('',(2.49789201680602E-014,1.,7.62974067683827E-015));
#779=DIRECTION('',(0.,-1.63043304224492E-014,1.));
#780=DIRECTION('',(-1.,3.50414142147315E-014,0.));
#781=DIRECTION('',(0.,1.63043304224492E-014,-1.));
#782=DIRECTION('',(0.,1.,0.));
#783=DIRECTION('',(0.,1.63043304224492E-014,-1.));
#784=DIRECTION('',(-1.,3.51316198354823E-014,0.));
#785=DIRECTION('',(-1.,3.16402583158111E-014,1.13890353418606E-027));
#786=DIRECTION('',(3.51311496373624E-014,1.,3.59953930469947E-014));
#787=DIRECTION('',(0.,3.59953930469947E-014,-1.));
#788=DIRECTION('',(0.,1.,3.33066907387547E-014));
#789=DIRECTION('',(3.51311496373624E-014,1.,3.59953930469947E-014));
#790=DIRECTION('',(0.,3.59953930469947E-014,-1.));
#791=DIRECTION('',(2.4980018054066E-014,1.,2.73114864057789E-014));
#792=DIRECTION('',(0.,3.59953930469947E-014,-1.));
#793=DIRECTION('',(0.,1.,0.));
#794=DIRECTION('',(3.51311496373624E-014,1.,3.59953930469947E-014));
#795=DIRECTION('',(0.,-3.59953930469947E-014,1.));
#796=DIRECTION('',(0.,1.,6.83214169000096E-014));
#797=DIRECTION('',(-3.51311496373624E-014,-1.,-3.59953930469947E-014));
#798=DIRECTION('',(0.,3.59953930469947E-014,-1.));
#799=DIRECTION('',(0.,1.,3.33066907387547E-014));
#800=DIRECTION('',(0.,3.59953930469947E-014,-1.));
#801=DIRECTION('',(2.4980018054066E-014,1.,2.73114864057789E-014));
#802=DIRECTION('',(1.,-3.51311496373624E-014,0.));
#803=DIRECTION('',(0.,-1.66533453693773E-014,0.999999999999979));
#804=DIRECTION('',(0.,1.63043304224492E-014,-1.));
#805=DIRECTION('',(-3.51311496373624E-014,-1.,-1.63043304224492E-014));
#806=DIRECTION('',(0.,-1.63043304224492E-014,1.));
#807=DIRECTION('',(0.,-1.63043304224492E-014,1.));
#808=DIRECTION('',(-2.49789201680602E-014,-1.,-7.62974067683827E-015));
#809=DIRECTION('',(0.,1.63043304224492E-014,-1.));
#810=DIRECTION('',(2.49789201680602E-014,1.,7.62974067683827E-015));
#811=DIRECTION('',(0.,-1.63043304224492E-014,1.));
#812=DIRECTION('',(-2.49789201680602E-014,-1.,-7.62974067683827E-015));
#813=DIRECTION('',(-1.,3.51311496373624E-014,0.));
#814=DIRECTION('',(0.,-1.6306400674182E-014,1.));
#815=DIRECTION('',(0.,-1.63043304224492E-014,1.));
#816=DIRECTION('',(0.,1.63043304224492E-014,-1.));
#817=DIRECTION('',(0.,-1.63043304224492E-014,1.));
#818=DIRECTION('',(0.,-1.,0.));
#819=DIRECTION('',(0.,1.63043304224492E-014,-1.));
#820=DIRECTION('',(-0.999999999999992,3.52282305890675E-014,0.));
#821=DIRECTION('',(0.,-1.63043304224492E-014,1.));
#822=DIRECTION('',(0.,-1.63043304224492E-014,1.));
#823=DIRECTION('',(0.999999999999992,-3.52282305890675E-014,0.));
#824=DIRECTION('',(0.,1.63043304224492E-014,-1.));
#825=DIRECTION('',(0.,-1.63043304224492E-014,1.));
#826=DIRECTION('',(0.999999999999992,-3.52282305890675E-014,0.));
#827=DIRECTION('',(0.,1.63043304224492E-014,-1.));
#828=DIRECTION('',(-1.,3.51311496373624E-014,0.));
#829=DIRECTION('',(0.,-1.6306400674182E-014,1.));
#830=DIRECTION('',(0.,-1.63043304224492E-014,1.));
#831=DIRECTION('',(0.,1.63043304224492E-014,-1.));
#832=DIRECTION('',(0.,-1.,-1.11022302462516E-014));
#833=DIRECTION('',(0.,-1.63043304224492E-014,1.));
#834=DIRECTION('',(0.,-1.63043304224492E-014,1.));
#835=DIRECTION('',(0.,1.63043304224492E-014,-1.));
#836=DIRECTION('',(1.,-3.50414142147315E-014,0.));
#837=DIRECTION('',(0.,1.63043304224492E-014,-1.));
#838=DIRECTION('',(0.,-1.63043304224492E-014,1.));
#839=DIRECTION('',(-1.,3.50414142147315E-014,0.));
#840=DIRECTION('',(0.,-1.63043304224492E-014,1.));
#841=DIRECTION('',(-1.,3.50414142147315E-014,0.));
#842=DIRECTION('',(0.,-1.63043304224492E-014,1.));
#843=DIRECTION('',(1.,-3.50414142147315E-014,0.));
#844=DIRECTION('',(-1.,3.51311496373624E-014,0.));
#845=DIRECTION('',(0.,1.64010219546898E-014,-1.00000000000001));
#846=DIRECTION('',(-1.,3.51311496373624E-014,0.));
#847=DIRECTION('',(0.,1.58603289232165E-014,-1.00000000000002));
#848=DIRECTION('',(1.,-3.51311496373624E-014,0.));
#849=DIRECTION('',(0.,1.6306400674182E-014,-1.));
#850=DIRECTION('',(1.,-3.51311496373624E-014,0.));
#851=DIRECTION('',(0.,-1.58603289232165E-014,1.00000000000002));
#852=DIRECTION('',(-1.,3.51311496373624E-014,0.));
#853=DIRECTION('',(0.,-1.58603289232165E-014,1.00000000000002));
#854=DIRECTION('',(0.,1.63043304224492E-014,-1.));
#855=DIRECTION('',(0.99999999999998,-3.39864191211783E-014,0.));
#856=DIRECTION('',(0.,-1.63043304224492E-014,1.));
#857=DIRECTION('',(0.,-1.63043304224492E-014,1.));
#858=DIRECTION('',(-0.99999999999998,3.39864191211783E-014,0.));
#859=DIRECTION('',(0.,1.63043304224492E-014,-1.));
#860=DIRECTION('',(0.,-1.63043304224492E-014,1.));
#861=DIRECTION('',(0.99999999999998,-3.39864191211783E-014,0.));
#862=DIRECTION('',(-1.,3.51311496373624E-014,0.));
#863=DIRECTION('',(0.,-1.64010219546898E-014,1.00000000000001));
#864=DIRECTION('',(-2.49789201680602E-014,-1.,-7.62974067683827E-015));
#865=DIRECTION('',(-2.49789201680602E-014,-1.,-7.62974067683827E-015));
#866=DIRECTION('',(-1.,3.51311496373624E-014,0.));
#867=DIRECTION('',(0.,-1.6306400674182E-014,1.));
#868=DIRECTION('',(-2.49789201680602E-014,-1.,-7.62974067683827E-015));
#869=DIRECTION('',(1.,-3.51311496373624E-014,0.));
#870=DIRECTION('',(0.,1.6306400674182E-014,-1.));
#871=DIRECTION('',(-2.49789201680602E-014,-1.,-7.62974067683827E-015));
#872=DIRECTION('',(0.,-1.63043304224492E-014,1.));
#873=DIRECTION('',(1.,-3.51316198354823E-014,0.));
#874=DIRECTION('',(-2.49789201680602E-014,-1.,-7.62974067683827E-015));
#875=DIRECTION('',(-1.,3.51311496373624E-014,0.));
#876=DIRECTION('',(0.,-1.6306400674182E-014,1.));
#877=DIRECTION('',(1.,-3.51311496373624E-014,0.));
#878=DIRECTION('',(0.,1.66533453693773E-014,-0.999999999999979));
#879=DIRECTION('',(0.,1.63043304224492E-014,-1.));
#880=DIRECTION('',(0.99999999999998,-3.39864191211783E-014,0.));
#881=DIRECTION('',(0.,-1.63043304224492E-014,1.));
#882=DIRECTION('',(1.,-3.51316198354823E-014,0.));
#883=DIRECTION('',(0.,-1.63043304224492E-014,1.));
#884=DIRECTION('',(-0.99999999999998,3.39864191211783E-014,0.));
#885=DIRECTION('',(0.,-1.63043304224492E-014,1.));
#886=DIRECTION('',(0.99999999999998,-3.39864191211783E-014,0.));
#887=DIRECTION('',(0.,1.63043304224492E-014,-1.));
#888=DIRECTION('',(-1.,3.50799636253088E-014,0.));
#889=DIRECTION('',(0.,1.63043304224492E-014,-1.));
#890=DIRECTION('',(-1.,3.51316198354823E-014,0.));
#891=DIRECTION('',(0.,1.63043304224492E-014,-1.));
#892=DIRECTION('',(-1.,3.50414142147315E-014,0.));
#893=DIRECTION('',(0.,1.63043304224492E-014,-1.));
#894=DIRECTION('',(0.,-1.,0.));
#895=DIRECTION('',(3.51311496373624E-014,1.,1.63043304224492E-014));
#896=DIRECTION('',(3.51311496373624E-014,1.,1.63043304224492E-014));
#897=DIRECTION('',(-1.,3.16402583158111E-014,5.15873226232631E-028));
#898=DIRECTION('',(0.,-1.63043304224492E-014,1.));
#899=DIRECTION('',(1.,-3.51316198354823E-014,0.));
#900=DIRECTION('',(-3.51311496373624E-014,-1.,-3.59953930469947E-014));
#901=DIRECTION('',(0.,-1.63043304224492E-014,1.));
#902=DIRECTION('',(-1.,3.51311496373624E-014,0.));
#903=DIRECTION('',(0.,-1.6306400674182E-014,1.));
#904=DIRECTION('',(3.16402583158111E-014,1.,7.62974067683827E-015));
#905=DIRECTION('',(0.999999999999964,-3.23815048849004E-014,0.));
#906=DIRECTION('',(-3.16402583158111E-014,-1.,-7.62974067683827E-015));
#907=DIRECTION('',(1.,-4.17929579832332E-014,0.));
#908=DIRECTION('',(-1.,3.51311496373624E-014,0.));
#909=DIRECTION('',(0.,-1.6306400674182E-014,1.));
#910=DIRECTION('',(0.,1.63043304224492E-014,-1.));
#911=DIRECTION('',(0.999999999999979,-3.60822483003176E-014,0.));
#912=DIRECTION('',(0.,-1.63043304224492E-014,1.));
#913=DIRECTION('',(1.,-3.51309111020647E-014,0.));
#914=DIRECTION('',(0.,1.63043304224492E-014,-1.));
#915=DIRECTION('',(-0.999999999999979,3.60822483003176E-014,0.));
#916=DIRECTION('',(0.,3.59953930469946E-014,-1.));
#917=DIRECTION('',(4.44089209850063E-014,1.,0.));
#918=DIRECTION('',(-3.51311496373624E-014,-1.,-3.59953930469947E-014));
#919=DIRECTION('',(0.,3.70074341541719E-014,-1.00000000000004));
#920=DIRECTION('',(0.,1.63043304224492E-014,-1.));
#921=DIRECTION('',(0.999999999999992,-3.41607084500048E-014,0.));
#922=DIRECTION('',(0.,-1.63043304224492E-014,1.));
#923=DIRECTION('',(1.,-3.50414142147315E-014,0.));
#924=DIRECTION('',(-2.49789201680602E-014,-1.,-7.62974067683827E-015));
#925=DIRECTION('',(0.,-1.63043304224492E-014,1.));
#926=DIRECTION('',(1.,-3.51316198354823E-014,0.));
#927=DIRECTION('',(0.,1.63043304224492E-014,-1.));
#928=DIRECTION('',(0.,1.63043304224492E-014,-1.));
#929=DIRECTION('',(0.,-1.,-1.11022302462516E-014));
#930=DIRECTION('',(0.,-1.63043304224492E-014,1.));
#931=DIRECTION('',(0.,1.63043304224492E-014,-1.));
#932=DIRECTION('',(1.,-3.50414142147315E-014,0.));
#933=DIRECTION('',(0.,-1.63043304224492E-014,1.));
#934=DIRECTION('',(1.,-3.50414142147315E-014,0.));
#935=DIRECTION('',(0.,-1.63043304224492E-014,1.));
#936=DIRECTION('',(1.,-3.50799636253088E-014,0.));
#937=DIRECTION('',(0.,-1.63043304224492E-014,1.));
#938=DIRECTION('',(1.,-3.50414142147315E-014,0.));
#939=DIRECTION('',(0.,1.63043304224492E-014,-1.));
#940=DIRECTION('',(-0.999999999999991,3.5325278056255E-014,0.));
#941=DIRECTION('',(0.,1.63043304224492E-014,-1.));
#942=DIRECTION('',(-0.999999999999991,3.5325278056255E-014,0.));
#943=DIRECTION('',(0.,-1.63043304224492E-014,1.));
#944=DIRECTION('',(1.,-3.51316198354823E-014,0.));
#945=DIRECTION('',(3.51311496373624E-014,1.,1.63043304224492E-014));
#946=DIRECTION('',(-1.,3.51311496373624E-014,0.));
#947=DIRECTION('',(0.,-1.6306400674182E-014,1.));
#948=DIRECTION('',(0.,-1.63043304224492E-014,1.));
#949=DIRECTION('',(0.,-1.,0.));
#950=DIRECTION('',(0.,-1.63043304224492E-014,1.));
#951=DIRECTION('',(1.,-3.51316198354823E-014,0.));
#952=DIRECTION('',(0.,1.63043304224492E-014,-1.));
#953=DIRECTION('',(-0.999999999999992,3.41607084500048E-014,0.));
#954=DIRECTION('',(0.,1.63043304224492E-014,-1.));
#955=DIRECTION('',(-0.999999999999992,3.41607084500048E-014,0.));
#956=DIRECTION('',(0.,1.63043304224492E-014,-1.));
#957=DIRECTION('',(-0.999999999999991,3.5325278056255E-014,0.));
#958=DIRECTION('',(0.,1.63043304224492E-014,-1.));
#959=DIRECTION('',(-1.,3.51316198354823E-014,0.));
#960=DIRECTION('',(0.,1.63043304224492E-014,-1.));
#961=DIRECTION('',(-0.999999999999991,3.5325278056255E-014,0.));
#962=DIRECTION('',(0.,1.63043304224492E-014,-1.));
#963=DIRECTION('',(-0.999999999999992,3.41607084500048E-014,0.));
#964=DIRECTION('',(0.,1.63043304224492E-014,-1.));
#965=DIRECTION('',(-0.999999999999992,3.41607084500048E-014,0.));
#966=DIRECTION('',(0.,1.63043304224492E-014,-1.));
#967=DIRECTION('',(-0.999999999999991,3.5325278056255E-014,0.));
#968=DIRECTION('',(0.,1.63043304224492E-014,-1.));
#969=DIRECTION('',(-1.,3.51316198354823E-014,0.));
#970=DIRECTION('',(0.,1.63043304224492E-014,-1.));
#971=DIRECTION('',(-0.999999999999991,3.5325278056255E-014,0.));
#972=CARTESIAN_POINT('',(0.,0.,0.));
#973=CARTESIAN_POINT('',(-554.000000000001,35.9999999999998,1162.99422745516));
#974=CARTESIAN_POINT('',(-554.,61.974984355438,1162.99422745516));
#975=CARTESIAN_POINT('',(-554.000000000001,31.0923292192131,1162.99422745516));
#976=CARTESIAN_POINT('',(-553.000000000001,27.9999999999998,1162.99422745516));
#977=CARTESIAN_POINT('',(-552.500000000001,24.7886918553336,1162.99422745516));
#978=CARTESIAN_POINT('',(-552.500000000001,34.5166852264519,1162.99422745516));
#979=CARTESIAN_POINT('',(-552.500000000001,22.0062509768676,1162.99422745516));
#980=CARTESIAN_POINT('',(-553.000000000001,41.9999999999998,1162.99422745516));
#981=CARTESIAN_POINT('',(-563.000000000001,42.0000000000005,1162.99422745516));
#982=CARTESIAN_POINT('',(-563.000000000001,44.5000000000005,1162.99422745516));
#983=CARTESIAN_POINT('',(-552.500000000001,34.5166852264519,1162.99422745516));
#984=CARTESIAN_POINT('',(-554.6,58.9358972710029,1164.37701246747));
#985=CARTESIAN_POINT('',(-550.9,58.9358972710028,1164.37701246747));
#986=CARTESIAN_POINT('',(-552.,58.9358972710031,1164.37701246747));
#987=CARTESIAN_POINT('',(-550.9,61.6733322037724,1164.37701246747));
#988=CARTESIAN_POINT('',(-550.9,61.8894444366852,1164.37701246747));
#989=CARTESIAN_POINT('',(-553.000000000001,41.9999999999998,1164.37701246747));
#990=CARTESIAN_POINT('',(-552.,61.9749843554379,1164.37701246747));
#991=CARTESIAN_POINT('',(-552.,61.7352476548943,1164.37701246747));
#992=CARTESIAN_POINT('',(-554.6,61.7352476548944,1164.37701246747));
#993=CARTESIAN_POINT('',(-563.000000000001,42.0000000000008,1174.37701246747));
#994=CARTESIAN_POINT('',(-563.000000000001,44.5000000000008,1174.37701246747));
#995=CARTESIAN_POINT('',(-554.400000000001,35.9999999999999,1174.37701246747));
#996=CARTESIAN_POINT('',(-554.400000000001,22.0490601725129,1174.37701246747));
#997=CARTESIAN_POINT('',(-554.400000000001,25.0669981247872,1174.37701246747));
#998=CARTESIAN_POINT('',(-553.000000000001,27.9999999999996,1174.37701246747));
#999=CARTESIAN_POINT('',(-554.000000000001,31.092329219213,1174.37701246747));
#1000=CARTESIAN_POINT('',(-554.,61.735247654894,1174.37701246747));
#1001=CARTESIAN_POINT('',(-554.,61.9749843554379,1174.37701246747));
#1002=CARTESIAN_POINT('',(-553.000000000001,41.9999999999996,1174.37701246747));
#1003=CARTESIAN_POINT('',(-554.6,61.7352476548941,1174.37701246747));
#1004=CARTESIAN_POINT('',(-552.000000000001,53.,1153.49422745516));
#1005=CARTESIAN_POINT('',(-552.000000000001,52.9999999999999,1155.99422745516));
#1006=CARTESIAN_POINT('',(-552.000000000001,31.0923292192126,1184.67371937947));
#1007=CARTESIAN_POINT('',(-552.000000000001,31.0923292192127,1182.37701246747));
#1008=CARTESIAN_POINT('',(-552.000000000001,31.0923292192133,1145.99422745516));
#1009=CARTESIAN_POINT('',(-552.,61.9358972710029,1182.37701246747));
#1010=CARTESIAN_POINT('',(-552.,58.9358972710028,1182.37701246747));
#1011=CARTESIAN_POINT('',(-552.,58.9358972710028,1184.67371937947));
#1012=CARTESIAN_POINT('',(-552.,61.9749843554378,1175.29093436667));
#1013=CARTESIAN_POINT('',(-552.,61.9749843554382,1147.99422745516));
#1014=CARTESIAN_POINT('',(-552.,61.9749843554382,1147.99422745516));
#1015=CARTESIAN_POINT('',(-552.,61.9749843554382,1147.90167440743));
#1016=CARTESIAN_POINT('',(-552.,61.9685205820766,1147.8088986575));
#1017=CARTESIAN_POINT('',(-552.,61.9556867780978,1147.71723972384));
#1018=CARTESIAN_POINT('',(-552.,61.9246850272245,1147.49582544704));
#1019=CARTESIAN_POINT('',(-552.,61.8550290726522,1147.27671415108));
#1020=CARTESIAN_POINT('',(-552.,61.7525066859253,1147.0780321168));
#1021=CARTESIAN_POINT('',(-552.,61.6885359775077,1146.95406084683));
#1022=CARTESIAN_POINT('',(-552.,61.6110979455011,1146.83618704697));
#1023=CARTESIAN_POINT('',(-552.,61.5227244280097,1146.72824609682));
#1024=CARTESIAN_POINT('',(-552.,61.380748174443,1146.55483383323));
#1025=CARTESIAN_POINT('',(-552.,61.2068444633461,1146.40356952913));
#1026=CARTESIAN_POINT('',(-552.,61.0154568120332,1146.28695119153));
#1027=CARTESIAN_POINT('',(-552.,60.8240767685108,1146.1703374896));
#1028=CARTESIAN_POINT('',(-552.,60.6099416045819,1146.08514722907));
#1029=CARTESIAN_POINT('',(-552.,60.3907656932436,1146.03838189546));
#1030=CARTESIAN_POINT('',(-552.,60.2535583960112,1146.0091061188));
#1031=CARTESIAN_POINT('',(-552.,60.1124965627925,1145.99422745516));
#1032=CARTESIAN_POINT('',(-552.,59.9722007556115,1145.99422745516));
#1033=CARTESIAN_POINT('',(-552.,59.9722007556115,1145.99422745516));
#1034=CARTESIAN_POINT('',(-552.000000000001,36.0000000000001,1145.99422745516));
#1035=CARTESIAN_POINT('',(-552.000000000001,44.2366269246346,1145.99422745516));
#1036=CARTESIAN_POINT('',(-552.000000000001,44.2366269246352,1109.49422745516));
#1037=CARTESIAN_POINT('',(-552.000000000001,44.2366269246344,1160.99422745516));
#1038=CARTESIAN_POINT('',(-552.000000000001,35.9999999999998,1160.99422745516));
#1039=CARTESIAN_POINT('',(-552.000000000001,39.7633730753652,1160.99422745516));
#1040=CARTESIAN_POINT('',(-552.000000000001,39.7633730753661,1109.49422745516));
#1041=CARTESIAN_POINT('',(-552.000000000001,39.7633730753655,1145.99422745516));
#1042=CARTESIAN_POINT('',(-552.000000000001,36.0000000000001,1145.99422745516));
#1043=CARTESIAN_POINT('',(-552.000000000001,35.9999999999994,1184.67371937947));
#1044=CARTESIAN_POINT('',(-554.000000000001,31.0923292192128,1184.67371937947));
#1045=CARTESIAN_POINT('',(-554.400000000001,25.0669981247867,1201.67371937947));
#1046=CARTESIAN_POINT('',(-554.400000000001,25.066998124787,1182.37701246747));
#1047=CARTESIAN_POINT('',(-553.000000000001,27.9999999999995,1182.37701246747));
#1048=CARTESIAN_POINT('',(-553.000000000001,28.0000000000001,1145.99422745516));
#1049=CARTESIAN_POINT('',(-554.000000000001,31.0923292192134,1145.99422745516));
#1050=CARTESIAN_POINT('',(-554.000000000001,31.0923292192128,1184.67371937947));
#1051=CARTESIAN_POINT('',(-554.000000000001,31.0923292192132,1160.99422745516));
#1052=CARTESIAN_POINT('',(-553.000000000001,27.9999999999999,1160.99422745516));
#1053=CARTESIAN_POINT('',(-552.500000000001,24.7886918553336,1160.99422745516));
#1054=CARTESIAN_POINT('',(-552.500000000001,24.7886918553336,1161.99422745516));
#1055=CARTESIAN_POINT('',(-553.000000000001,27.9999999999995,1184.67371937947));
#1056=CARTESIAN_POINT('',(-554.,61.9749843554378,1175.29093436667));
#1057=CARTESIAN_POINT('',(-554.000000000001,35.9999999999995,1184.67371937947));
#1058=CARTESIAN_POINT('',(-535.023881531483,50.7669358846633,1154.61824909943));
#1059=CARTESIAN_POINT('',(-534.968795866971,50.6539857679738,1154.39385408561));
#1060=CARTESIAN_POINT('',(-534.930375734362,50.572672582534,1154.14526994174));
#1061=CARTESIAN_POINT('',(-534.911125523611,50.531859127845,1153.89207244407));
#1062=CARTESIAN_POINT('',(-534.891857975105,50.4910089144089,1153.6386469034));
#1063=CARTESIAN_POINT('',(-534.891268870717,50.4897387681158,1153.37371028528));
#1064=CARTESIAN_POINT('',(-534.909397370212,50.5281942104451,1153.1198264152));
#1065=CARTESIAN_POINT('',(-534.927260529736,50.5660867950512,1152.86965854702));
#1066=CARTESIAN_POINT('',(-534.963763239776,50.6434214878295,1152.62354594411));
#1067=CARTESIAN_POINT('',(-535.016586766638,50.751962550086,1152.40045982729));
#1068=CARTESIAN_POINT('',(-535.070476919834,50.8626953015791,1152.17286909782));
#1069=CARTESIAN_POINT('',(-535.142718036062,51.0084805571497,1151.96341174608));
#1070=CARTESIAN_POINT('',(-535.228840069145,51.1752860833846,1151.78530407405));
#1071=CARTESIAN_POINT('',(-535.320486851022,51.352792223584,1151.59577075273));
#1072=CARTESIAN_POINT('',(-535.43004032643,51.5581177233655,1151.43699268756));
#1073=CARTESIAN_POINT('',(-535.550833760141,51.773770896318,1151.31561271517));
#1074=CARTESIAN_POINT('',(-535.68436310522,52.0121615609765,1151.18143498945));
#1075=CARTESIAN_POINT('',(-535.834691517884,52.2685146912438,1151.08952045403));
#1076=CARTESIAN_POINT('',(-535.992733723829,52.5239200781546,1151.03997646799));
#1077=CARTESIAN_POINT('',(-536.172136506971,52.8138453988458,1150.9837362445));
#1078=CARTESIAN_POINT('',(-536.365654838321,53.1092744000721,1150.98039051915));
#1079=CARTESIAN_POINT('',(-536.560816252389,53.3909278688022,1151.0249815376));
#1080=CARTESIAN_POINT('',(-536.781564868042,53.7095083300727,1151.07541879048));
#1081=CARTESIAN_POINT('',(-537.010287432446,54.0188765023212,1151.18822050478));
#1082=CARTESIAN_POINT('',(-537.227059192364,54.2969239356341,1151.35694218988));
#1083=CARTESIAN_POINT('',(-537.455269209525,54.5896429205794,1151.53456670457));
#1084=CARTESIAN_POINT('',(-537.67859943405,54.8580870358871,1151.78118661862));
#1085=CARTESIAN_POINT('',(-537.858372467902,55.0664117369377,1152.08712314721));
#1086=CARTESIAN_POINT('',(-537.968761441527,55.1943327573323,1152.27498235314));
#1087=CARTESIAN_POINT('',(-538.064900428408,55.3023698560776,1152.49006067946));
#1088=CARTESIAN_POINT('',(-538.132596267406,55.3776046530017,1152.72157221896));
#1089=CARTESIAN_POINT('',(-538.200776496491,55.4533777841921,1152.95474031367));
#1090=CARTESIAN_POINT('',(-538.240968144285,55.4970734921954,1153.21249178268));
#1091=CARTESIAN_POINT('',(-538.243509180342,55.4998510617459,1153.46693882959));
#1092=CARTESIAN_POINT('',(-538.245674933051,55.5022184145274,1153.68380681915));
#1093=CARTESIAN_POINT('',(-538.220866250238,55.4752418202154,1153.90410095722));
#1094=CARTESIAN_POINT('',(-538.173710513583,55.423156859134,1154.10929723659));
#1095=CARTESIAN_POINT('',(-538.127711194407,55.3723491967166,1154.3094614121));
#1096=CARTESIAN_POINT('',(-538.059959839262,55.2970014207129,1154.50020374976));
#1097=CARTESIAN_POINT('',(-537.978970821332,55.2048734342123,1154.67258781562));
#1098=CARTESIAN_POINT('',(-537.861221753477,55.070929538966,1154.92321516716));
#1099=CARTESIAN_POINT('',(-537.712842144345,54.8982590124721,1155.14228617413));
#1100=CARTESIAN_POINT('',(-537.554301740073,54.7055265637932,1155.32211671335));
#1101=CARTESIAN_POINT('',(-537.354315033473,54.4624091840747,1155.54895931192));
#1102=CARTESIAN_POINT('',(-537.132032781755,54.1797176248512,1155.72136882151));
#1103=CARTESIAN_POINT('',(-536.911429138167,53.8809884952285,1155.83385547501));
#1104=CARTESIAN_POINT('',(-536.688788429804,53.5795008862917,1155.94738083574));
#1105=CARTESIAN_POINT('',(-536.461360916122,53.252851723473,1156.00294997066));
#1106=CARTESIAN_POINT('',(-536.247517475576,52.9249406986415,1155.99310042137));
#1107=CARTESIAN_POINT('',(-536.024487555908,52.5829429766645,1155.98282774628));
#1108=CARTESIAN_POINT('',(-535.809138010158,52.2281747223534,1155.89973455309));
#1109=CARTESIAN_POINT('',(-535.623042181727,51.9015825493659,1155.73999661163));
#1110=CARTESIAN_POINT('',(-535.483330843194,51.6563936591745,1155.62007344192));
#1111=CARTESIAN_POINT('',(-535.356323294037,51.420857509546,1155.45364166767));
#1112=CARTESIAN_POINT('',(-535.251331126294,51.2187175470071,1155.24837477584));
#1113=CARTESIAN_POINT('',(-535.159105424401,51.0411566838837,1155.06806720071));
#1114=CARTESIAN_POINT('',(-535.081570223363,50.8852233653955,1154.85324771344));
#1115=CARTESIAN_POINT('',(-535.023881531483,50.7669358846633,1154.61824909943));
#1116=CARTESIAN_POINT('',(-535.023881531483,50.7669358846633,1154.61824909943));
#1117=CARTESIAN_POINT('',(-550.9,61.8894444366852,1164.37701246747));
#1118=CARTESIAN_POINT('',(-550.730838913914,61.8715837929699,1164.37701246747));
#1119=CARTESIAN_POINT('',(-550.559596305948,61.8512015509197,1164.40642606282));
#1120=CARTESIAN_POINT('',(-550.400417858868,61.8303346590897,1164.46265123912));
#1121=CARTESIAN_POINT('',(-550.241260598058,61.8094705445931,1164.51886893198));
#1122=CARTESIAN_POINT('',(-550.089749158017,61.7875750696807,1164.6034304136));
#1123=CARTESIAN_POINT('',(-549.958303342293,61.7673488723825,1164.70944773485));
#1124=CARTESIAN_POINT('',(-549.826575376472,61.7470792592973,1164.81569262361));
#1125=CARTESIAN_POINT('',(-549.71133462684,61.7279706029342,1164.94647850922));
#1126=CARTESIAN_POINT('',(-549.622386478472,61.712730072194,1165.09107119129));
#1127=CARTESIAN_POINT('',(-549.53408229804,61.6975998800419,1165.23461704941));
#1128=CARTESIAN_POINT('',(-549.46924566822,61.6859107841691,1165.39583436516));
#1129=CARTESIAN_POINT('',(-549.433637897582,61.6794578521469,1165.56112928559));
#1130=CARTESIAN_POINT('',(-549.411350788714,61.6754189248026,1165.66458832897));
#1131=CARTESIAN_POINT('',(-549.4,61.6733322037723,1165.77110306367));
#1132=CARTESIAN_POINT('',(-549.4,61.6733322037723,1165.87701246747));
#1133=CARTESIAN_POINT('',(-549.4,61.6733322037723,1165.87701246747));
#1134=CARTESIAN_POINT('',(-549.4,61.6733322037722,1175.29093436667));
#1135=CARTESIAN_POINT('',(-549.4,61.6733322037721,1182.37701246747));
#1136=CARTESIAN_POINT('',(-553.000000000001,41.9999999999995,1182.37701246747));
#1137=CARTESIAN_POINT('',(-554.400000000001,22.0490601725127,1182.37701246747));
#1138=CARTESIAN_POINT('',(-554.400000000001,22.0490601725128,1175.29093436667));
#1139=CARTESIAN_POINT('',(-552.500000000001,22.0062509768676,1161.49422745516));
#1140=CARTESIAN_POINT('',(-552.500000000001,22.0062509768676,1160.99422745516));
#1141=CARTESIAN_POINT('',(-553.000000000001,41.9999999999999,1160.99422745516));
#1142=CARTESIAN_POINT('',(-554.,61.9749843554381,1160.99422745516));
#1143=CARTESIAN_POINT('',(-554.,61.9749843554378,1175.29093436667));
#1144=CARTESIAN_POINT('',(-554.,61.9749843554383,1147.99422745516));
#1145=CARTESIAN_POINT('',(-553.000000000001,42.0000000000001,1147.99422745516));
#1146=CARTESIAN_POINT('',(-569.703293088491,53.0000000000007,1147.99422745516));
#1147=CARTESIAN_POINT('',(-568.815607878393,54.3479332940535,1147.99422745516));
#1148=CARTESIAN_POINT('',(-570.590978298588,51.6520667059474,1147.99422745516));
#1149=CARTESIAN_POINT('',(-571.303765385681,50.1439197149065,1148.54166556561));
#1150=CARTESIAN_POINT('',(-572.124007068498,47.9685516887238,1150.77952825346));
#1151=CARTESIAN_POINT('',(-572.270004819028,47.3572509171315,1152.48412176158));
#1152=CARTESIAN_POINT('',(-572.169164415094,47.7075703010643,1155.69675296154));
#1153=CARTESIAN_POINT('',(-571.910954274992,48.6548814947535,1157.19756818773));
#1154=CARTESIAN_POINT('',(-570.815318287465,51.1938062638043,1158.91017165663));
#1155=CARTESIAN_POINT('',(-569.975915964928,52.6952489177493,1159.13861704401));
#1156=CARTESIAN_POINT('',(-568.055505357524,55.2627987502823,1158.67416460425));
#1157=CARTESIAN_POINT('',(-566.959960402094,56.3789028785145,1158.02139499203));
#1158=CARTESIAN_POINT('',(-565.502165377105,57.6238342441271,1156.54147449555));
#1159=CARTESIAN_POINT('',(-565.036649609204,57.9775990792122,1155.95033196475));
#1160=CARTESIAN_POINT('',(-564.378775707558,58.4526006925311,1154.53253744896));
#1161=CARTESIAN_POINT('',(-564.222407983541,58.5554182867189,1153.69515393278));
#1162=CARTESIAN_POINT('',(-564.479184217644,58.3784201098478,1152.08865251521));
#1163=CARTESIAN_POINT('',(-564.851065982173,58.1200505616074,1151.37184602972));
#1164=CARTESIAN_POINT('',(-565.720902434662,57.4428765542693,1150.18057862163));
#1165=CARTESIAN_POINT('',(-566.224539648127,57.0200305682919,1149.68850411786));
#1166=CARTESIAN_POINT('',(-567.750822235553,55.5783766365596,1148.47639151918));
#1167=CARTESIAN_POINT('',(-568.815607878393,54.3479332940535,1147.99422745516));
#1168=CARTESIAN_POINT('',(-570.590978298588,51.6520667059474,1147.99422745516));
#1169=CARTESIAN_POINT('',(-553.000000000001,42.0000000000001,1147.99422745516));
#1170=CARTESIAN_POINT('',(-553.000000000001,41.9999999999996,1175.29093436667));
#1171=CARTESIAN_POINT('',(-557.900000000001,53.0000000000002,1153.49422745516));
#1172=CARTESIAN_POINT('',(-557.900000000001,53.0000000000002,1147.99422745516));
#1173=CARTESIAN_POINT('',(-557.900000000001,53.0000000000002,1153.49422745516));
#1174=CARTESIAN_POINT('',(-557.900000000001,53.0000000000002,1149.99422745516));
#1175=CARTESIAN_POINT('',(-557.900000000001,53.0000000000002,1153.49422745516));
#1176=CARTESIAN_POINT('',(-554.000000000001,53.,1153.49422745516));
#1177=CARTESIAN_POINT('',(-554.000000000001,53.,1156.99422745516));
#1178=CARTESIAN_POINT('',(-553.,53.,1153.49422745516));
#1179=CARTESIAN_POINT('',(-553.000000000001,41.9999999999998,1160.99422745516));
#1180=CARTESIAN_POINT('',(-554.000000000001,39.7633730753654,1160.99422745516));
#1181=CARTESIAN_POINT('',(-554.000000000001,44.2366269246343,1160.99422745516));
#1182=CARTESIAN_POINT('',(-554.000000000001,39.7633730753663,1109.49422745516));
#1183=CARTESIAN_POINT('',(-554.000000000001,39.7633730753657,1145.99422745516));
#1184=CARTESIAN_POINT('',(-553.000000000001,42.0000000000001,1145.99422745516));
#1185=CARTESIAN_POINT('',(-554.000000000001,44.2366269246346,1145.99422745516));
#1186=CARTESIAN_POINT('',(-554.000000000001,44.2366269246352,1109.49422745516));
#1187=CARTESIAN_POINT('',(-553.000000000001,42.0000000000007,1109.49422745516));
#1188=CARTESIAN_POINT('',(-555.800000000001,53.0000000000001,1153.49422745516));
#1189=CARTESIAN_POINT('',(-554.000000000001,42.0000000000001,1145.99422745516));
#1190=CARTESIAN_POINT('',(-554.,59.9722007556116,1145.99422745516));
#1191=CARTESIAN_POINT('',(-554.,59.9722007556116,1145.99422745516));
#1192=CARTESIAN_POINT('',(-554.,60.1966073821724,1145.99422745516));
#1193=CARTESIAN_POINT('',(-554.,60.4241095727701,1146.03294571837));
#1194=CARTESIAN_POINT('',(-554.,60.6358730200214,1146.10720591263));
#1195=CARTESIAN_POINT('',(-554.,60.8476427873067,1146.18146832318));
#1196=CARTESIAN_POINT('',(-554.,61.0495169308359,1146.29332970324));
#1197=CARTESIAN_POINT('',(-554.,61.2247274585753,1146.43355313539));
#1198=CARTESIAN_POINT('',(-554.,61.3997974296294,1146.57366407807));
#1199=CARTESIAN_POINT('',(-554.,61.5530810215378,1146.74596611834));
#1200=CARTESIAN_POINT('',(-554.,61.6718156014766,1146.93618354801));
#1201=CARTESIAN_POINT('',(-554.,61.7903914165442,1147.12614663016));
#1202=CARTESIAN_POINT('',(-554.,61.8777844934674,1147.33922558508));
#1203=CARTESIAN_POINT('',(-554.,61.9267142296392,1147.55774807229));
#1204=CARTESIAN_POINT('',(-554.,61.9586984651683,1147.70059116212));
#1205=CARTESIAN_POINT('',(-554.,61.9749843554383,1147.84784733481));
#1206=CARTESIAN_POINT('',(-554.,61.9749843554383,1147.99422745516));
#1207=CARTESIAN_POINT('',(-554.000000000001,35.9999999999999,1160.99422745516));
#1208=CARTESIAN_POINT('',(-554.000000000001,35.9999999999995,1184.67371937947));
#1209=CARTESIAN_POINT('',(-552.500000000001,41.9999999999998,1160.99422745516));
#1210=CARTESIAN_POINT('',(-552.500000000001,41.9999999999998,1160.99422745516));
#1211=CARTESIAN_POINT('',(-554.000000000001,35.9999999999999,1160.99422745516));
#1212=CARTESIAN_POINT('',(-553.000000000001,41.9999999999998,1160.99422745516));
#1213=CARTESIAN_POINT('',(-554.000000000001,42.0000000000001,1145.99422745516));
#1214=CARTESIAN_POINT('',(-554.000000000001,35.9999999999995,1184.67371937947));
#1215=CARTESIAN_POINT('',(-553.,53.,1153.49422745516));
#1216=CARTESIAN_POINT('',(-553.000000000001,41.9999999999998,1160.99422745516));
#1217=CARTESIAN_POINT('',(-553.000000000001,41.9999999999998,1160.99422745516));
#1218=CARTESIAN_POINT('',(-553.000000000001,42.0000000000001,1145.99422745516));
#1219=CARTESIAN_POINT('',(-553.000000000001,42.0000000000007,1109.49422745516));
#1220=CARTESIAN_POINT('',(-553.000000000001,42.0000000000001,1145.99422745516));
#1221=CARTESIAN_POINT('',(-553.000000000001,42.0000000000001,1145.99422745516));
#1222=CARTESIAN_POINT('',(-553.000000000001,42.0000000000001,1147.99422745516));
#1223=CARTESIAN_POINT('',(-543.000000000001,41.9999999999992,1182.37701246747));
#1224=CARTESIAN_POINT('',(-543.000000000001,39.4999999999992,1182.37701246747));
#1225=CARTESIAN_POINT('',(-554.4,61.935897271003,1182.37701246747));
#1226=CARTESIAN_POINT('',(-549.4,61.9358972710028,1182.37701246747));
#1227=CARTESIAN_POINT('',(-549.4,58.9358972710027,1182.37701246747));
#1228=CARTESIAN_POINT('',(-551.4,58.9358972710027,1182.37701246747));
#1229=CARTESIAN_POINT('',(-554.6,61.935897271003,1182.37701246747));
#1230=CARTESIAN_POINT('',(-549.4,58.935897271003,1165.87701246747));
#1231=CARTESIAN_POINT('',(-549.4,58.935897271003,1165.87701246747));
#1232=CARTESIAN_POINT('',(-549.4,58.9358972710027,1184.67371937947));
#1233=CARTESIAN_POINT('',(-549.400000000001,35.9999999999993,1184.67371937947));
#1234=CARTESIAN_POINT('',(-550.9,58.9358972710028,1165.87701246747));
#1235=CARTESIAN_POINT('',(-551.4,58.9358972710025,1201.67371937947));
#1236=CARTESIAN_POINT('',(-554.400000000001,35.9999999999995,1184.67371937947));
#1237=CARTESIAN_POINT('',(-543.000000000001,41.9999999999994,1166.52350422471));
#1238=CARTESIAN_POINT('',(-540.500000000001,41.9999999999993,1166.52350422471));
#1239=CARTESIAN_POINT('',(-543.000000000001,41.9999999999994,1165.02135267715));
#1240=CARTESIAN_POINT('',(-543.000000000001,41.9999999999994,1166.67371937947));
#1241=CARTESIAN_POINT('',(-543.000000000001,41.9999999999988,1201.67371937947));
#1242=CARTESIAN_POINT('',(-563.000000000001,42.0000000000005,1183.67371937947));
#1243=CARTESIAN_POINT('',(-550.900000000001,36.0000000000001,1165.87701246747));
#1244=CARTESIAN_POINT('',(-543.000000000001,41.9999999999991,1182.37701246747));
#1245=CARTESIAN_POINT('',(-539.750000000001,41.999999999999,1182.37701246747));
#1246=CARTESIAN_POINT('',(-553.000000000001,41.9999999999995,1182.37701246747));
#1247=CARTESIAN_POINT('',(-554.600000000001,22.0641027289962,1182.37701246747));
#1248=CARTESIAN_POINT('',(-554.6,61.935897271003,1182.37701246747));
#1249=CARTESIAN_POINT('',(-554.600000000001,35.9999999999996,1182.37701246747));
#1250=CARTESIAN_POINT('',(-554.000000000001,35.9999999999995,1182.37701246747));
#1251=CARTESIAN_POINT('',(-554.6,61.9358972710031,1174.87695176127));
#1252=CARTESIAN_POINT('',(-554.6,61.9358972710031,1174.37701246747));
#1253=CARTESIAN_POINT('',(-553.000000000001,41.9999999999996,1174.37701246747));
#1254=CARTESIAN_POINT('',(-554.600000000001,22.0641027289963,1174.37701246747));
#1255=CARTESIAN_POINT('',(-554.600000000001,22.0641027289963,1173.377040358));
#1256=CARTESIAN_POINT('',(-553.000000000001,41.9999999999993,1193.99422745467));
#1257=CARTESIAN_POINT('',(-533.000000000001,41.9999999999986,1193.99422745467));
#1258=CARTESIAN_POINT('',(-553.000000000001,41.9999999999999,1155.99422745467));
#1259=CARTESIAN_POINT('',(-553.000000000001,41.9999999999993,1195.99422745467));
#1260=CARTESIAN_POINT('',(-535.000000000001,41.9999999999987,1195.99422745467));
#1261=CARTESIAN_POINT('',(-553.000000000001,41.9999999999993,1193.99422745467));
#1262=CARTESIAN_POINT('',(-563.000000000001,41.9999999999996,1195.99422745467));
#1263=CARTESIAN_POINT('',(-568.500000000001,41.9999999999998,1195.99422745467));
#1264=CARTESIAN_POINT('',(-543.000000000001,41.9999999999989,1195.99422745467));
#1265=CARTESIAN_POINT('',(-548.500000000001,41.9999999999991,1195.99422745467));
#1266=CARTESIAN_POINT('',(-553.000000000001,41.9999999999993,1195.99422745467));
#1267=CARTESIAN_POINT('',(-554.6,61.9358972710031,1174.37701246747));
#1268=CARTESIAN_POINT('',(-554.600000000001,35.9999999999998,1165.37701246747));
#1269=CARTESIAN_POINT('',(-563.000000000001,42.,1174.37701246747));
#1270=CARTESIAN_POINT('',(-563.000000000001,38.75,1174.37701246747));
#1271=CARTESIAN_POINT('',(-551.4,61.935897271003,1174.37701246747));
#1272=CARTESIAN_POINT('',(-543.000000000001,41.999999999999,1188.99422745467));
#1273=CARTESIAN_POINT('',(-546.250000000001,41.9999999999992,1188.99422745467));
#1274=CARTESIAN_POINT('',(-543.000000000001,41.9999999999997,1145.99422745467));
#1275=CARTESIAN_POINT('',(-543.000000000001,41.999999999999,1188.99422745467));
#1276=CARTESIAN_POINT('',(-548.500000000001,41.9999999999992,1188.99422745467));
#1277=CARTESIAN_POINT('',(-543.000000000001,41.999999999999,1188.99422745467));
#1278=CARTESIAN_POINT('',(-543.000000000001,41.9999999999989,1195.99422745467));
#1279=CARTESIAN_POINT('',(-563.000000000001,41.9999999999998,1188.99422745467));
#1280=CARTESIAN_POINT('',(-566.250000000001,41.9999999999999,1188.99422745467));
#1281=CARTESIAN_POINT('',(-563.000000000001,42.0000000000005,1145.99422745467));
#1282=CARTESIAN_POINT('',(-563.000000000001,41.9999999999998,1188.99422745467));
#1283=CARTESIAN_POINT('',(-568.500000000001,42.,1188.99422745467));
#1284=CARTESIAN_POINT('',(-563.000000000001,41.9999999999998,1188.99422745467));
#1285=CARTESIAN_POINT('',(-563.000000000001,41.9999999999996,1195.99422745467));
#1286=MECHANICAL_DESIGN_GEOMETRIC_PRESENTATION_REPRESENTATION('',(#24,#25),
#1287);
#1287=(
GEOMETRIC_REPRESENTATION_CONTEXT(3)
GLOBAL_UNCERTAINTY_ASSIGNED_CONTEXT((#1288))
GLOBAL_UNIT_ASSIGNED_CONTEXT((#1294,#1290,#1289))
REPRESENTATION_CONTEXT('handle','TOP_LEVEL_ASSEMBLY_PART')
);
#1288=UNCERTAINTY_MEASURE_WITH_UNIT(LENGTH_MEASURE(0.0508),#1294,
'DISTANCE_ACCURACY_VALUE','Maximum Tolerance applied to model');
#1289=(
NAMED_UNIT(*)
SI_UNIT($,.STERADIAN.)
SOLID_ANGLE_UNIT()
);
#1290=(
CONVERSION_BASED_UNIT('DEGREE',#1292)
NAMED_UNIT(#1291)
PLANE_ANGLE_UNIT()
);
#1291=DIMENSIONAL_EXPONENTS(0.,0.,0.,0.,0.,0.,0.);
#1292=PLANE_ANGLE_MEASURE_WITH_UNIT(PLANE_ANGLE_MEASURE(0.0174532925),#1293);
#1293=(
NAMED_UNIT(*)
PLANE_ANGLE_UNIT()
SI_UNIT($,.RADIAN.)
);
#1294=(
LENGTH_UNIT()
NAMED_UNIT(*)
SI_UNIT(.MILLI.,.METRE.)
);
ENDSEC;
END-ISO-10303-21;
